<?xml version="1.0" encoding="UTF-8"?>
<svg version="1.1" xmlns="http://www.w3.org/2000/svg" width="567" height="440">
<path d="M0 0 C3.93324584 0.87140919 6.88653276 2.52290417 10.375 4.5625 C11.62750327 5.29053818 12.88011045 6.01839765 14.1328125 6.74609375 C14.77250977 7.11976074 15.41220703 7.49342773 16.07128906 7.87841797 C18.52977527 9.30807438 21.00193381 10.71288311 23.47509766 12.11694336 C28.80777636 15.1456408 34.09488792 18.23947298 39.33984375 21.41796875 C43.33976529 23.79677671 47.38965321 26.08731225 51.44335938 28.37304688 C55.89457152 30.89457152 55.89457152 30.89457152 57 32 C57.08685603 33.56172745 57.10702219 35.12729344 57.09765625 36.69140625 C57.09282227 38.10776367 57.09282227 38.10776367 57.08789062 39.55273438 C57.07532227 41.04256836 57.07532227 41.04256836 57.0625 42.5625 C57.05798828 43.55958984 57.05347656 44.55667969 57.04882812 45.58398438 C57.03700007 48.05604849 57.02051849 50.52799518 57 53 C52.86517082 52.26566409 49.85528874 51.01444061 46.1875 48.9375 C45.21167969 48.38964844 44.23585938 47.84179688 43.23046875 47.27734375 C42.49441406 46.85582031 41.75835937 46.43429688 41 46 C40.94585937 46.59039062 40.89171875 47.18078125 40.8359375 47.7890625 C39.60738149 51.03842092 37.63408296 51.72735303 34.625 53.375 C33.53574219 53.97957031 32.44648438 54.58414063 31.32421875 55.20703125 C30.22722656 55.79871094 29.13023437 56.39039063 28 57 C27.05769531 57.51949219 26.11539063 58.03898437 25.14453125 58.57421875 C21.53727994 60.55742618 17.91280774 62.50808343 14.2890625 64.4609375 C8.4150019 67.64201903 2.62800111 70.94645259 -3.1328125 74.328125 C-7.05396446 76.61457328 -11.00311506 78.84845105 -15 81 C-15.680625 81.37511719 -16.36125 81.75023437 -17.0625 82.13671875 C-19 83 -19 83 -22 83 C-23.06059488 75.31068715 -23.09928082 67.75493514 -23 60 C-22.51273437 59.731875 -22.02546875 59.46375 -21.5234375 59.1875 C-16.87163826 56.61632369 -12.24179252 54.00852249 -7.625 51.375 C-6.76056274 50.88386719 -6.76056274 50.88386719 -5.87866211 50.3828125 C-2.24356022 48.30975532 1.36054017 46.19158018 4.94921875 44.0390625 C6.21983154 43.28423584 6.21983154 43.28423584 7.51611328 42.51416016 C9.18778136 41.52013471 10.85433985 40.51745535 12.51513672 39.50537109 C13.28486816 39.04984863 14.05459961 38.59432617 14.84765625 38.125 C15.52836182 37.71507812 16.20906738 37.30515625 16.91040039 36.8828125 C19 36 19 36 24 36 C19.38 33.36 14.76 30.72 10 28 C10 27.34 10 26.68 10 26 C9.278125 25.896875 8.55625 25.79375 7.8125 25.6875 C2.63157895 24.42105263 2.63157895 24.42105263 0 22 C-0.65035756 18.26350804 -0.46704597 14.59055451 -0.3125 10.8125 C-0.28994141 9.77673828 -0.26738281 8.74097656 -0.24414062 7.67382812 C-0.18516846 5.11443596 -0.10292567 2.55794049 0 0 Z M25 37 C27.30283254 39.54131358 29.67313793 41.07110295 32.6875 42.6875 C33.49574219 43.12449219 34.30398437 43.56148437 35.13671875 44.01171875 C35.75160156 44.33785156 36.36648437 44.66398437 37 45 C37.33 44.34 37.66 43.68 38 43 C36.40089132 41.99193149 34.79551738 40.99379615 33.1875 40 C32.29417969 39.443125 31.40085937 38.88625 30.48046875 38.3125 C28.02577377 36.76615208 28.02577377 36.76615208 25 37 Z " fill="#EEEDEC" transform="translate(108,190)"/>
<path d="M0 0 C0 22.44 0 44.88 0 68 C2.97 68.495 2.97 68.495 6 69 C9.17578125 70.48828125 9.17578125 70.48828125 12.3125 72.3125 C13.36050781 72.90675781 14.40851563 73.50101562 15.48828125 74.11328125 C18 76 18 76 18.85546875 78.23046875 C18.90316406 78.81441406 18.95085937 79.39835937 19 80 C13.21024361 83.41524897 7.41488297 86.80509971 1.5 90 C-2.2707055 92.03865533 -5.99085625 94.14240549 -9.6875 96.3125 C-10.67492187 96.88871094 -11.66234375 97.46492188 -12.6796875 98.05859375 C-14.44797874 99.09252404 -16.21552485 100.12777165 -17.97753906 101.17236328 C-20.08292523 102.41761618 -22.19693496 103.64713593 -24.3125 104.875 C-25.29899536 105.46535034 -25.29899536 105.46535034 -26.30541992 106.06762695 C-30.5153683 108.48979632 -34.02821718 110.0055242 -39 110 C-41.84653118 109.00408756 -44.35000848 107.59874374 -46.9375 106.0625 C-47.62134766 105.67642578 -48.30519531 105.29035156 -49.00976562 104.89257812 C-50.68268605 103.94497984 -52.34274237 102.97473197 -54 102 C-54 100.68 -54 99.36 -54 98 C-52.329375 97.07380859 -52.329375 97.07380859 -50.625 96.12890625 C-40.3966541 90.45450761 -30.18806259 84.74640042 -20 79 C-20 78.01 -20 77.02 -20 76 C-19.97174822 73.86691098 -19.94070642 71.73385855 -19.90820312 69.60083008 C-19.89844955 68.95665634 -19.88869598 68.3124826 -19.87864685 67.64878845 C-19.8463967 65.52236605 -19.81382473 63.3959487 -19.78125 61.26953125 C-19.75880994 59.79408294 -19.73638996 58.31863433 -19.71398926 56.84318542 C-19.65500629 52.9617584 -19.59575037 49.08033558 -19.53643799 45.19891357 C-19.47595035 41.23742926 -19.41572032 37.27594103 -19.35546875 33.31445312 C-19.23723158 25.54296489 -19.11870611 17.77148109 -19 10 C-18.25379395 9.59442871 -17.50758789 9.18885742 -16.73876953 8.77099609 C-15.75505371 8.23555176 -14.77133789 7.70010742 -13.7578125 7.1484375 C-12.78473145 6.61911621 -11.81165039 6.08979492 -10.80908203 5.54443359 C-8.48070698 4.26429275 -6.17299387 2.95849216 -3.875 1.625 C-1 0 -1 0 0 0 Z " fill="#EDECEB" transform="translate(106,146)"/>
<path d="M0 0 C13 0 13 0 16.1328125 2.265625 C16.79023438 3.25046875 17.44765625 4.2353125 18.125 5.25 C18.80820312 6.22453125 19.49140625 7.1990625 20.1953125 8.203125 C20.79085938 9.12609375 21.38640625 10.0490625 22 11 C22.57492187 11.73734375 23.14984375 12.4746875 23.7421875 13.234375 C25 15 25 15 25 17 C25.66 17 26.32 17 27 17 C27.99 18.65 28.98 20.3 30 22 C30.33 14.74 30.66 7.48 31 0 C35.62 0 40.24 0 45 0 C45 15.18 45 30.36 45 46 C38.565 46.495 38.565 46.495 32 47 C32 46.34 32 45.68 32 45 C31.34 45 30.68 45 30 45 C28.73828125 43.56640625 28.73828125 43.56640625 27.3125 41.5625 C24.43033914 37.57017348 21.40746231 33.71836226 18.3203125 29.8828125 C17 28 17 28 17 26 C16.34 26 15.68 26 15 26 C14.97494385 26.60062256 14.9498877 27.20124512 14.92407227 27.82006836 C14.8084472 30.52611437 14.68557064 33.23178283 14.5625 35.9375 C14.50352539 37.35579102 14.50352539 37.35579102 14.44335938 38.80273438 C14.40146484 39.70185547 14.35957031 40.60097656 14.31640625 41.52734375 C14.26141968 42.77632446 14.26141968 42.77632446 14.20532227 44.05053711 C14 46 14 46 13 47 C8.71 47 4.42 47 0 47 C0 31.49 0 15.98 0 0 Z " fill="#F2EFEF" transform="translate(380,224)"/>
<path d="M0 0 C2.5625 2.625 2.5625 2.625 4 5 C2.77974937 8.6607519 1.873509 8.92339441 -1.4375 10.6875 C-2.64212891 11.34298828 -2.64212891 11.34298828 -3.87109375 12.01171875 C-6 13 -6 13 -8 13 C-8.70125 12.175 -9.4025 11.35 -10.125 10.5 C-13.23451517 7.79277332 -13.23451517 7.79277332 -17 7.5625 C-20.34232975 7.80844502 -23.13890767 8.14870496 -26 10 C-28.33263597 14.55924304 -28.16236895 18.08228523 -27 23 C-25.82725006 25.87391821 -25.82725006 25.87391821 -24 28 C-20.76684368 29.16451492 -17.65881631 29.10308115 -14.25 29.0625 C-12.77273437 29.04896484 -12.77273437 29.04896484 -11.265625 29.03515625 C-10.14414063 29.01775391 -10.14414063 29.01775391 -9 29 C-9 28.01 -9 27.02 -9 26 C-12.3 26 -15.6 26 -19 26 C-19 22.37 -19 18.74 -19 15 C-11.41 15 -3.82 15 4 15 C4 21.6 4 28.2 4 35 C3.34 35 2.68 35 2 35 C2 35.66 2 36.32 2 37 C-6.12052319 42.075327 -13.80104028 44.17843587 -23.41015625 42.60546875 C-30.40379919 40.93002106 -35.41709298 37.54009646 -40 32 C-43.91176718 24.96131065 -44.02158204 17.01231929 -41.9375 9.375 C-39.68085886 3.28632674 -35.4350433 -0.44571705 -30.0625 -3.875 C-19.9176182 -7.60169127 -8.43991754 -7.09270066 0 0 Z " fill="#EDEBEA" transform="translate(266,164)"/>
<path d="M0 0 C11.88 0 23.76 0 36 0 C36 3.96 36 7.92 36 12 C28.74 12 21.48 12 14 12 C14 13.65 14 15.3 14 17 C20.93 17 27.86 17 35 17 C35 20.96 35 24.92 35 29 C28.07 29 21.14 29 14 29 C14 30.98 14 32.96 14 35 C21.26 35 28.52 35 36 35 C36 38.63 36 42.26 36 46 C31.65072284 46.86985543 28.12736067 47.11575046 23.73046875 47.09765625 C22.48418701 47.09515869 21.23790527 47.09266113 19.95385742 47.09008789 C18.38095947 47.08098389 16.80806152 47.07187988 15.1875 47.0625 C7.6696875 47.0315625 7.6696875 47.0315625 0 47 C0 31.49 0 15.98 0 0 Z " fill="#EBE9E8" transform="translate(337,224)"/>
<path d="M0 0 C4.95 0 9.9 0 15 0 C18.17845626 5.86791925 20.49671314 11.88986004 22.78320312 18.14135742 C24.30785288 22.26997386 25.98824892 26.17273326 28.0546875 30.0625 C30.45862524 34.98957901 33 40.4781274 33 46 C28.05 46 23.1 46 18 46 C18 44.68 18 43.36 18 42 C17.34 42 16.68 42 16 42 C16 41.34 16 40.68 16 40 C7.585 40.495 7.585 40.495 -1 41 C-1.99 43.475 -1.99 43.475 -3 46 C-7.95 46 -12.9 46 -18 46 C-17.20196859 42.00984293 -16.32715343 39.10587901 -14.75 35.4375 C-14.30140625 34.38175781 -13.8528125 33.32601562 -13.390625 32.23828125 C-12.93171875 31.16964844 -12.4728125 30.10101563 -12 29 C-8.33286802 20.4320404 -5.05924889 11.80022234 -2 3 C-1.34 3 -0.68 3 0 3 C0 2.01 0 1.02 0 0 Z M7 17 C6.49384702 18.26839526 5.99530901 19.53983102 5.5 20.8125 C5.2215625 21.52019531 4.943125 22.22789062 4.65625 22.95703125 C3.8470838 25.11841216 3.8470838 25.11841216 4 28 C6.64 28 9.28 28 12 28 C12 27.34 12 26.68 12 26 C11.34 26 10.68 26 10 26 C9.8046875 23.94921875 9.609375 21.8984375 9.4140625 19.84765625 C9.27742188 19.23792969 9.14078125 18.62820312 9 18 C8.34 17.67 7.68 17.34 7 17 Z " fill="#EEEBEB" transform="translate(292,159)"/>
<path d="M0 0 C1.39456452 0.00667256 2.78911118 0.01863093 4.18359375 0.03515625 C4.89451172 0.03966797 5.60542969 0.04417969 6.33789062 0.04882812 C8.09899388 0.06064761 9.86005411 0.07858362 11.62109375 0.09765625 C14.61317396 7.20715657 17.53407648 14.3411912 20.38037109 21.51000977 C22.35823957 26.47894145 24.42609721 31.40526429 26.54296875 36.31640625 C27.77837205 39.50338868 28.68208269 42.81111756 29.62109375 46.09765625 C24.67109375 46.09765625 19.72109375 46.09765625 14.62109375 46.09765625 C13.96109375 44.11765625 13.30109375 42.13765625 12.62109375 40.09765625 C6.68109375 40.09765625 0.74109375 40.09765625 -5.37890625 40.09765625 C-5.87390625 42.57265625 -5.87390625 42.57265625 -6.37890625 45.09765625 C-7.37890625 46.09765625 -7.37890625 46.09765625 -10.5390625 46.1953125 C-11.82683594 46.18371094 -13.11460937 46.17210937 -14.44140625 46.16015625 C-15.73175781 46.15113281 -17.02210938 46.14210937 -18.3515625 46.1328125 C-19.35058594 46.12121094 -20.34960938 46.10960937 -21.37890625 46.09765625 C-20.80756408 41.76444319 -19.74225031 38.25925688 -17.94140625 34.28515625 C-14.31030197 26.06646169 -11.01297027 17.72475203 -7.71899414 9.3659668 C-7.09238892 7.78489136 -7.09238892 7.78489136 -6.453125 6.171875 C-6.07760498 5.21885498 -5.70208496 4.26583496 -5.31518555 3.28393555 C-3.95781922 0.11438784 -3.95781922 0.11438784 0 0 Z M3.62109375 18.09765625 C2.95219055 19.57581287 2.28603016 21.05521097 1.62109375 22.53515625 C1.06421875 23.77072266 1.06421875 23.77072266 0.49609375 25.03125 C-0.44389357 26.87712617 -0.44389357 26.87712617 -0.37890625 28.09765625 C2.26109375 28.09765625 4.90109375 28.09765625 7.62109375 28.09765625 C6.63109375 24.79765625 5.64109375 21.49765625 4.62109375 18.09765625 C4.29109375 18.09765625 3.96109375 18.09765625 3.62109375 18.09765625 Z " fill="#F0EEED" transform="translate(388.37890625,158.90234375)"/>
<path d="M0 0 C4.08514572 0.81702914 5.93773268 1.31972149 9.3125 3.3125 C13.48167823 5.75543807 17.63371519 7.8168576 22 10 C22 27.16 22 44.32 22 62 C3.66666667 72 3.66666667 72 0 72 C0 48.24 0 24.48 0 0 Z " fill="#F9F9F8" transform="translate(63,163)"/>
<path d="M0 0 C4.4034242 0.5314061 7.47943109 1.56440235 11.2734375 3.84375 C12.25497803 4.42608398 13.23651855 5.00841797 14.24780273 5.60839844 C15.27977783 6.23262695 16.31175293 6.85685547 17.375 7.5 C19.5397811 8.78743994 21.70514643 10.07389804 23.87109375 11.359375 C24.92280762 11.98650391 25.97452148 12.61363281 27.05810547 13.25976562 C30.81837483 15.48409757 34.61824734 17.62911988 38.4375 19.75 C40.96038647 21.16302802 43.48077454 22.58045613 46 24 C46.76054687 24.42829102 47.52109375 24.85658203 48.3046875 25.29785156 C50.68822872 26.64678933 53.06362615 28.00913473 55.4375 29.375 C56.17863037 29.79233398 56.91976074 30.20966797 57.68334961 30.63964844 C62.88555664 33.65666991 62.88555664 33.65666991 64 37 C60.95155832 38.87806181 57.88433063 40.72298654 54.8125 42.5625 C53.94818359 43.09552734 53.08386719 43.62855469 52.19335938 44.17773438 C51.35224609 44.67724609 50.51113281 45.17675781 49.64453125 45.69140625 C48.87471924 46.15748291 48.10490723 46.62355957 47.31176758 47.10375977 C44.40487967 48.2307199 42.94743918 47.92031742 40 47 C38.13818359 46.15551758 38.13818359 46.15551758 36.3984375 45.14453125 C35.74810547 44.77191162 35.09777344 44.39929199 34.42773438 44.01538086 C33.75033203 43.61843018 33.07292969 43.22147949 32.375 42.8125 C30.95606637 41.99680897 29.53679361 41.18170761 28.1171875 40.3671875 C27.42206055 39.9659668 26.72693359 39.56474609 26.01074219 39.15136719 C21.71576969 36.69203131 17.35417396 34.35236093 13 32 C13 31.34 13 30.68 13 30 C12.01 29.9071875 12.01 29.9071875 11 29.8125 C6.66982999 28.63974562 3.09685122 27.36066689 0 24 C-1.00807586 19.86559851 -0.75677448 15.91193398 -0.5 11.6875 C-0.46390625 10.56537109 -0.4278125 9.44324219 -0.390625 8.28710938 C-0.29646821 5.52125379 -0.16512661 2.76237759 0 0 Z " fill="#EFEEEC" transform="translate(108,164)"/>
<path d="M0 0 C5.28 0 10.56 0 16 0 C20 6.75 20 6.75 20 9 C20.66 9 21.32 9 22 9 C22.33 9.66 22.66 10.32 23 11 C23.9841125 9.73299277 24.96211497 8.4612381 25.9375 7.1875 C26.75541016 6.12595703 26.75541016 6.12595703 27.58984375 5.04296875 C29.16856248 2.95874948 29.16856248 2.95874948 30 0 C35.28 0 40.56 0 46 0 C45.06538189 4.67309053 44.43056409 6.22710191 41.75 9.875 C41.12738281 10.74253906 40.50476563 11.61007813 39.86328125 12.50390625 C38.72189389 14.0329346 37.55749453 15.54551149 36.35546875 17.02734375 C34.74818198 18.9746208 34.74818198 18.9746208 33 22 C33.56319664 26.3929338 37.04401179 29.83497169 39.7578125 33.23046875 C41 35 41 35 41 37 C41.66 37 42.32 37 43 37 C47 43.75 47 43.75 47 46 C32.70568717 47.3751061 32.70568717 47.3751061 28.6015625 44.06640625 C26.67958821 41.13656739 25 38.57087851 25 35 C24.01 35 23.02 35 22 35 C22 35.66 22 36.32 22 37 C21.34 37 20.68 37 20 37 C19.731875 37.7425 19.46375 38.485 19.1875 39.25 C17.1605476 43.94399502 17.1605476 43.94399502 15 46 C12.12961948 46.29561076 9.66245255 46.37943016 6.8125 46.25 C6.06291016 46.23195312 5.31332031 46.21390625 4.54101562 46.1953125 C2.6934629 46.14824109 0.84656841 46.07649766 -1 46 C-0.01 43.03 -0.01 43.03 1 40 C1.66 40 2.32 40 3 40 C3.25652344 39.443125 3.51304687 38.88625 3.77734375 38.3125 C5.64829618 34.77382959 8.07817927 31.6605289 10.44140625 28.4375 C11.94029346 26.09337565 12.65645729 24.725673 13 22 C12.17229646 20.04804992 12.17229646 20.04804992 10.76171875 18.21484375 C10.27123047 17.51939453 9.78074219 16.82394531 9.27539062 16.10742188 C8.75138672 15.39134766 8.22738281 14.67527344 7.6875 13.9375 C7.17509766 13.21755859 6.66269531 12.49761719 6.13476562 11.75585938 C5.17987942 10.4150348 4.21972366 9.07793651 3.25268555 7.74584961 C0 3.21262912 0 3.21262912 0 0 Z " fill="#EEEBEA" transform="translate(420,159)"/>
<path d="M0 0 C2.20936073 1.44471754 4.11108093 2.77386678 5.88671875 4.7265625 C5.88671875 5.3865625 5.88671875 6.0465625 5.88671875 6.7265625 C6.54671875 6.7265625 7.20671875 6.7265625 7.88671875 6.7265625 C8.54671875 8.7065625 9.20671875 10.6865625 9.88671875 12.7265625 C6.50072269 15.83039222 2.51266437 17.69891741 -2.11328125 17.7265625 C-4.92578125 15.4140625 -4.92578125 15.4140625 -7.11328125 12.7265625 C-10.43933076 11.61787933 -13.64386579 11.18478718 -17.11328125 10.7265625 C-17.11328125 11.3865625 -17.11328125 12.0465625 -17.11328125 12.7265625 C-18.42528529 14.08088925 -19.75959529 15.41389732 -21.11328125 16.7265625 C-22.64543013 19.79086026 -22.34266673 22.3431267 -22.11328125 25.7265625 C-20.69093328 29.28243243 -19.75446062 30.41309703 -16.30078125 32.1015625 C-11.363738 33.0696102 -8.29086985 32.51162157 -4.11328125 29.7265625 C-3.61828125 28.2415625 -3.61828125 28.2415625 -3.11328125 26.7265625 C1.275612 27.39154633 4.86786725 28.91413927 8.88671875 30.7265625 C8.88671875 35.89127382 7.26261737 37.24134558 3.87109375 40.890625 C-1.39215408 45.76016532 -8.15665985 46.86194585 -15.11328125 46.7265625 C-23.11493851 45.68340166 -28.99101338 41.90786465 -34.11328125 35.7265625 C-37.76033364 29.26872452 -38.34528785 21.46087717 -36.4921875 14.33984375 C-33.92020828 7.60697369 -29.25410598 2.87285385 -22.875 -0.43359375 C-15.93555556 -2.54389157 -6.7693665 -2.76890022 0 0 Z " fill="#E9E7E6" transform="translate(260.11328125,225.2734375)"/>
<path d="M0 0 C4.95 0 9.9 0 15 0 C17.64 4.62 20.28 9.24 23 14 C23.66 14 24.32 14 25 14 C27.64 9.38 30.28 4.76 33 0 C37.95 0 42.9 0 48 0 C47 5 47 5 46 7 C45.34 7 44.68 7 44 7 C43.91492188 7.51691406 43.82984375 8.03382813 43.7421875 8.56640625 C42.70396357 11.97068789 40.9181604 14.8878419 39.125 17.9375 C38.77308594 18.54529297 38.42117188 19.15308594 38.05859375 19.77929688 C36.54176243 22.39287055 35.03238289 24.95426563 33.28515625 27.421875 C31.4879354 31.02724206 31.43697245 34.33293783 31.3125 38.3125 C31.26125977 39.42334961 31.26125977 39.42334961 31.20898438 40.55664062 C31.12706446 42.37058164 31.06184178 44.18526353 31 46 C26.38 46 21.76 46 17 46 C16.96261719 44.98679688 16.92523438 43.97359375 16.88671875 42.9296875 C16.82101612 41.57809061 16.75457029 40.22652971 16.6875 38.875 C16.66494141 38.20984375 16.64238281 37.5446875 16.61914062 36.859375 C16.09150506 27.07413366 9.43835563 18.95139336 4.47460938 10.79101562 C3.61512695 9.35725586 3.61512695 9.35725586 2.73828125 7.89453125 C2.21274658 7.02675049 1.68721191 6.15896973 1.14575195 5.26489258 C0 3 0 3 0 0 Z " fill="#EFEBEA" transform="translate(467,159)"/>
<path d="M0 0 C13.53 0 27.06 0 41 0 C41 3.96 41 7.92 41 12 C30.25 13 30.25 13 28 13 C27.67 23.89 27.34 34.78 27 46 C20.565 46.495 20.565 46.495 14 47 C13 46 13 46 12.88647461 42.85717773 C12.88663367 41.46597303 12.89232494 40.07476239 12.90234375 38.68359375 C12.9037587 37.95253922 12.90517365 37.22148468 12.90663147 36.46827698 C12.91224592 34.12464368 12.92480078 31.78110461 12.9375 29.4375 C12.94251314 27.85221492 12.94707637 26.26692834 12.95117188 24.68164062 C12.96222003 20.7877239 12.97949428 16.89387795 13 13 C12.39671875 13.01160156 11.7934375 13.02320313 11.171875 13.03515625 C9.97304688 13.04869141 9.97304688 13.04869141 8.75 13.0625 C7.56664062 13.07990234 7.56664062 13.07990234 6.359375 13.09765625 C4 13 4 13 0 12 C0 8.04 0 4.08 0 0 Z " fill="#F6F4F3" transform="translate(430,224)"/>
<path d="M0 0 C4.62 0 9.24 0 14 0 C15 1 15 1 15.11352539 4.14282227 C15.11336633 5.53402697 15.10767506 6.92523761 15.09765625 8.31640625 C15.0962413 9.04746078 15.09482635 9.77851532 15.09336853 10.53172302 C15.08775408 12.87535632 15.07519922 15.21889539 15.0625 17.5625 C15.05748686 19.14778508 15.05292363 20.73307166 15.04882812 22.31835938 C15.03862921 26.21230543 15.01905687 30.10604677 15 34 C21.6 34 28.2 34 35 34 C35 37.96 35 41.92 35 46 C31.98774506 47.50612747 28.88743937 47.12170642 25.5859375 47.09765625 C24.93923096 47.09664917 24.29252441 47.09564209 23.6262207 47.09460449 C21.20912911 47.08937024 18.79206279 47.07540898 16.375 47.0625 C10.97125 47.041875 5.5675 47.02125 0 47 C0 31.49 0 15.98 0 0 Z " fill="#FDFDFC" transform="translate(330,159)"/>
<path d="M0 0 C4.29 0 8.58 0 13 0 C13.33 10.89 13.66 21.78 14 33 C20.53676545 33.28923686 20.53676545 33.28923686 27.07397461 33.56811523 C27.88358643 33.60622314 28.69319824 33.64433105 29.52734375 33.68359375 C30.35999756 33.72025146 31.19265137 33.75690918 32.05053711 33.79467773 C34 34 34 34 35 35 C35.07244053 37.01964199 35.08377188 39.04167124 35.0625 41.0625 C35.05347656 42.16722656 35.04445313 43.27195312 35.03515625 44.41015625 C35.02355469 45.26480469 35.01195312 46.11945313 35 47 C30.67668037 47.02480062 26.35339894 47.04290758 22.0300293 47.05493164 C20.56062091 47.05994669 19.09121748 47.06676033 17.62182617 47.07543945 C15.50438205 47.08762928 13.38700417 47.09325669 11.26953125 47.09765625 C9.36071167 47.10551147 9.36071167 47.10551147 7.41333008 47.11352539 C4.4629081 47.01539606 1.86053325 46.69063835 -1 46 C-1.02527062 39.60962769 -1.04283317 33.21926817 -1.05493164 26.82885742 C-1.05997308 24.65307127 -1.06680607 22.47728853 -1.07543945 20.30151367 C-1.08751338 17.18146933 -1.09323005 14.06146962 -1.09765625 10.94140625 C-1.10281754 9.96224747 -1.10797882 8.98308868 -1.11329651 7.97425842 C-1.11337204 7.07340012 -1.11344757 6.17254181 -1.11352539 5.24438477 C-1.115746 4.44718521 -1.11796661 3.64998566 -1.12025452 2.82862854 C-1 1 -1 1 0 0 Z " fill="#EBEAE9" transform="translate(275,224)"/>
<path d="M0 0 C4.29 0 8.58 0 13 0 C13.33 15.18 13.66 30.36 14 46 C9.81537205 48.09231398 4.67855628 47 0 47 C0 31.49 0 15.98 0 0 Z " fill="#F1EFEF" transform="translate(315,224)"/>
<path d="M0 0 C5.625 1.125 5.625 1.125 8 4 C6.35 4 4.7 4 3 4 C2.9845388 5.10754135 2.9845388 5.10754135 2.96876526 6.23745728 C2.8706047 13.21111345 2.76806465 20.18469312 2.66066074 27.15821266 C2.60560235 30.74297785 2.55221074 34.32775141 2.50268555 37.91259766 C2.45478865 41.37507205 2.40243867 44.83745361 2.34705925 48.29981613 C2.31689636 50.25725652 2.29129168 52.21476543 2.26576233 54.17227173 C2.24581711 55.37306366 2.22587189 56.57385559 2.20532227 57.81103516 C2.18977798 58.86360504 2.1742337 59.91617493 2.15821838 61.00064087 C1.9966001 64.06445209 1.5618837 66.98602819 1 70 C2.32 70.33 3.64 70.66 5 71 C2.525 71.495 2.525 71.495 0 72 C0 48.24 0 24.48 0 0 Z " fill="#A8A2A2" transform="translate(63,163)"/>
<path d="M0 0 C0.99 0 1.98 0 3 0 C3 15.18 3 30.36 3 46 C0.69 46 -1.62 46 -4 46 C-2.02 45.505 -2.02 45.505 0 45 C0 30.15 0 15.3 0 0 Z " fill="#D3CBCA" transform="translate(422,224)"/>
<path d="M0 0 C13.53 0 27.06 0 41 0 C40.67 0.99 40.34 1.98 40 3 C20.695 2.505 20.695 2.505 1 2 C1 4.97 1 7.94 1 11 C2.65 10.67 4.3 10.34 6 10 C6 10.66 6 11.32 6 12 C7.32 12.33 8.64 12.66 10 13 C6.7 12.67 3.4 12.34 0 12 C0 8.04 0 4.08 0 0 Z " fill="#AC9F9E" transform="translate(430,224)"/>
<path d="M0 0 C2.31243792 -0.02685412 4.6249627 -0.04632841 6.9375 -0.0625 C8.22527344 -0.07410156 9.51304687 -0.08570313 10.83984375 -0.09765625 C14 0 14 0 15 1 C15.07319621 3.69654854 15.09242537 6.36691458 15.0625 9.0625 C15.05798828 9.82111328 15.05347656 10.57972656 15.04882812 11.36132812 C15.0370068 13.24091871 15.01907078 15.12046899 15 17 C14.01 17.33 13.02 17.66 12 18 C12 12.39 12 6.78 12 1 C8.04 1 4.08 1 0 1 C0 0.67 0 0.34 0 0 Z " fill="#ABA8A7" transform="translate(330,159)"/>
<path d="M0 0 C0.99 0 1.98 0 3 0 C3 2.97 3 5.94 3 9 C9.6 9 16.2 9 23 9 C23 9.33 23 9.66 23 10 C15.31068715 11.06059488 7.75493514 11.09928082 0 11 C0 7.37 0 3.74 0 0 Z " fill="#999090" transform="translate(342,184)"/>
<path d="M0 0 C0.33 0 0.66 0 1 0 C1 3.63 1 7.26 1 11 C-2.01213029 12.50606515 -5.11282622 12.12160331 -8.4140625 12.09765625 C-9.14370209 12.0962413 -9.87334167 12.09482635 -10.62509155 12.09336853 C-12.95843585 12.08776531 -15.29168464 12.07521235 -17.625 12.0625 C-19.20572778 12.05748541 -20.78645707 12.05292243 -22.3671875 12.04882812 C-26.24482854 12.03779484 -30.12239807 12.02052811 -34 12 C-34 11.34 -34 10.68 -34 10 C-23.11 9.67 -12.22 9.34 -1 9 C-0.67 6.03 -0.34 3.06 0 0 Z " fill="#DDCCCA" transform="translate(364,194)"/>
<path d="M0 0 C3.68297866 0.6208622 5.57688029 1.06674982 8 4 C6.35 4 4.7 4 3 4 C2.67 9.61 2.34 15.22 2 21 C1.67 21 1.34 21 1 21 C-0.10087193 13.98194143 -0.09733092 7.09434233 0 0 Z " fill="#D8D6D6" transform="translate(63,163)"/>
<path d="M0 0 C0.99 0.495 0.99 0.495 2 1 C1.67 1.99 1.34 2.98 1 4 C1.66 4 2.32 4 3 4 C3.10655578 10.44070471 2.96205088 16.62641289 2 23 C1.67 23 1.34 23 1 23 C-0.06059488 15.31068715 -0.09928082 7.75493514 0 0 Z " fill="#AAA5A4" transform="translate(85,250)"/>
<path d="M0 0 C4.95 0 9.9 0 15 0 C14 5 14 5 13 7 C12.34 7 11.68 7 11 7 C10.67 7.99 10.34 8.98 10 10 C9.67 8.68 9.34 7.36 9 6 C9.99 6 10.98 6 12 6 C11.67 5.01 11.34 4.02 11 3 C11.33 2.34 11.66 1.68 12 1 C8.04 1 4.08 1 0 1 C0 0.67 0 0.34 0 0 Z " fill="#CAB6B7" transform="translate(500,159)"/>
<path d="M0 0 C-5.89489786 3.37422887 -12.54450809 2.32420347 -19 1 C-19 0.67 -19 0.34 -19 0 C-12.46837378 -1.10914408 -6.56492112 -0.78441153 0 0 Z " fill="#BDB7B1" transform="translate(258,159)"/>
<path d="M0 0 C0.99 0 1.98 0 3 0 C1.55746343 3.36591866 -0.33264727 5.51047079 -3 8 C-4.32 7.34 -5.64 6.68 -7 6 C-4.82575883 3.49962266 -3.26954202 2.56371414 0 2 C0 1.34 0 0.68 0 0 Z " fill="#A7A6A4" transform="translate(91,220)"/>
<path d="M0 0 C0.33 0 0.66 0 1 0 C1 3.63 1 7.26 1 11 C2.65 10.67 4.3 10.34 6 10 C6 10.66 6 11.32 6 12 C7.32 12.33 8.64 12.66 10 13 C6.7 12.67 3.4 12.34 0 12 C0 8.04 0 4.08 0 0 Z " fill="#B3A9A7" transform="translate(430,224)"/>
<path d="M0 0 C4.95 0 9.9 0 15 0 C15 0.33 15 0.66 15 1 C14.10796875 1.03738281 13.2159375 1.07476562 12.296875 1.11328125 C11.12640625 1.17902344 9.9559375 1.24476563 8.75 1.3125 C7.58984375 1.37050781 6.4296875 1.42851562 5.234375 1.48828125 C1.89180362 2.01711803 0.4502943 2.73772333 -2 5 C-1.34 3.35 -0.68 1.7 0 0 Z " fill="#C9BBBB" transform="translate(385,159)"/>
<path d="M0 0 C0.66 1.32 1.32 2.64 2 4 C-2.95 4 -7.9 4 -13 4 C-13 3.67 -13 3.34 -13 3 C-12.14535156 2.95101562 -11.29070312 2.90203125 -10.41015625 2.8515625 C-9.30542969 2.77679688 -8.20070313 2.70203125 -7.0625 2.625 C-5.40927734 2.52058594 -5.40927734 2.52058594 -3.72265625 2.4140625 C-2.37494141 2.20910156 -2.37494141 2.20910156 -1 2 C-0.67 1.34 -0.34 0.68 0 0 Z " fill="#D7C3C3" transform="translate(416,201)"/>
<path d="M0 0 C3.68754757 0.49831724 5.60490662 1.10067643 8 4 C7.05125 3.95875 6.1025 3.9175 5.125 3.875 C1.89755144 3.65026182 1.89755144 3.65026182 0 6 C0 4.02 0 2.04 0 0 Z " fill="#A19696" transform="translate(63,163)"/>
<path d="M0 0 C3.96 1.98 3.96 1.98 8 4 C4 5 4 5 1 4 C0.67 2.68 0.34 1.36 0 0 Z " fill="#C4BFBD" transform="translate(163,194)"/>
<path d="M0 0 C0.99 0.99 1.98 1.98 3 3 C2.01 3.495 2.01 3.495 1 4 C-0.0409066 5.64142963 -1.04504326 7.30712215 -2 9 C-2.33 8.34 -2.66 7.68 -3 7 C-2.06421005 4.64018187 -1.06652192 2.30368736 0 0 Z " fill="#BBB2B4" transform="translate(380,170)"/>
<path d="M0 0 C2.31 0 4.62 0 7 0 C5.68 1.32 4.36 2.64 3 4 C2.01 3.67 1.02 3.34 0 3 C0 2.01 0 1.02 0 0 Z " fill="#FBF7F6" transform="translate(468,160)"/>
</svg>
